<svg width="24" height="22" viewBox="0 0 24 22" fill="none" xmlns="http://www.w3.org/2000/svg">
<path d="M1.49999 18C1.49245 18.4445 1.61667 18.8813 1.85699 19.2554C2.05672 19.5694 2.32868 19.8311 2.65016 20.0186C2.97164 20.2062 3.33331 20.3141 3.70499 20.3334C4.45865 20.3719 3.07849 20.3334 3.83332 20.3334H7.33332C7.33306 19.0598 6.91534 17.8214 6.14413 16.8078C5.37291 15.7943 4.29073 15.0615 3.06332 14.7217C3.71432 13.5865 4.50999 12.2145 5.44332 10.6022C7.38102 11.3869 9.04027 12.7323 10.2084 14.466C11.3766 16.1997 12.0004 18.2428 12 20.3334H16.6667C17.4402 20.3334 19.3932 20.3392 20.1667 20.3334C20.5473 20.3307 20.9216 20.2349 21.2568 20.0544C21.5919 19.8738 21.8779 19.614 22.0896 19.2976C22.3013 18.9812 22.4323 18.6178 22.4713 18.2391C22.5103 17.8604 22.4561 17.4779 22.3133 17.125L14.03 2.83335C13.8282 2.46865 13.5324 2.16465 13.1734 1.95297C12.8143 1.74128 12.4051 1.62964 11.9883 1.62964C11.5715 1.62964 11.1623 1.74128 10.8033 1.95297C10.4442 2.16465 10.1484 2.46865 9.94665 2.83335L7.79999 6.53869C13.029 8.93035 16.6667 14.2049 16.6667 20.3334" stroke="white" stroke-width="2" stroke-linecap="round" stroke-linejoin="round"/>
</svg>
