<svg width="18" height="30" viewBox="0 0 18 30" fill="none" xmlns="http://www.w3.org/2000/svg">
<path d="M10.7614 26.2727C10.7614 25.7883 10.5889 25.3737 10.244 25.0287C9.89905 24.6838 9.48439 24.5113 9.00002 24.5113C8.51564 24.5113 8.10099 24.6838 7.75605 25.0287C7.41112 25.3737 7.23865 25.7883 7.23865 26.2727C7.23865 26.7571 7.41112 27.1717 7.75605 27.5167C8.10099 27.8616 8.51564 28.0341 9.00002 28.0341C9.48439 28.0341 9.89905 27.8616 10.244 27.5167C10.5889 27.1717 10.7614 26.7571 10.7614 26.2727ZM15.3409 22.75V7.24997C15.3409 7.05915 15.2712 6.89402 15.1318 6.75458C14.9923 6.61514 14.8272 6.54542 14.6364 6.54542H3.36365C3.17284 6.54542 3.00771 6.61514 2.86827 6.75458C2.72883 6.89402 2.65911 7.05915 2.65911 7.24997V22.75C2.65911 22.9408 2.72883 23.1059 2.86827 23.2453C3.00771 23.3848 3.17284 23.4545 3.36365 23.4545H14.6364C14.8272 23.4545 14.9923 23.3848 15.1318 23.2453C15.2712 23.1059 15.3409 22.9408 15.3409 22.75ZM11.1137 4.07951C11.1137 3.84466 10.9962 3.72724 10.7614 3.72724H7.23865C7.0038 3.72724 6.88638 3.84466 6.88638 4.07951C6.88638 4.31436 7.0038 4.43178 7.23865 4.43178H10.7614C10.9962 4.43178 11.1137 4.31436 11.1137 4.07951ZM17.4546 3.72724V26.2727C17.4546 27.036 17.1757 27.6965 16.6179 28.2542C16.0601 28.812 15.3996 29.0909 14.6364 29.0909H3.36365C2.6004 29.0909 1.93988 28.812 1.38212 28.2542C0.824354 27.6965 0.545471 27.036 0.545471 26.2727V3.72724C0.545471 2.96398 0.824354 2.30347 1.38212 1.74571C1.93988 1.18794 2.6004 0.909058 3.36365 0.909058H14.6364C15.3996 0.909058 16.0601 1.18794 16.6179 1.74571C17.1757 2.30347 17.4546 2.96398 17.4546 3.72724Z" fill="white"/>
</svg>
